<svg width="16" height="16" viewBox="0 0 16 16" fill="none" xmlns="http://www.w3.org/2000/svg">
<path d="M8.66671 13.292C10.0116 13.1209 11.2408 12.4441 12.1046 11.3992C12.9684 10.3543 13.4019 9.01973 13.317 7.66669C13.2321 6.31365 12.6352 5.0437 11.6475 4.11496C10.6599 3.18622 9.35574 2.66839 8.00004 2.66671C6.64268 2.6657 5.33601 3.18227 4.34627 4.11116C3.35653 5.04005 2.7582 6.31137 2.6732 7.66607C2.5882 9.02076 3.02293 10.3569 3.8888 11.4022C4.75467 12.4475 5.98653 13.1234 7.33337 13.292V9.33337H6.00004V8.00004H7.33337V6.89737C7.33337 6.00604 7.42671 5.68271 7.60004 5.35671C7.77078 5.03416 8.03468 4.7705 8.35737 4.60004C8.61204 4.46337 8.92871 4.38137 9.48204 4.34604C9.70137 4.33204 9.98537 4.34937 10.334 4.39937V5.66604H10C9.38871 5.66604 9.13604 5.69471 8.98537 5.77537C8.89547 5.82161 8.82228 5.89481 8.77604 5.98471C8.69604 6.13537 8.66671 6.28471 8.66671 6.89671V8.00004H10.3334L10 9.33337H8.66671V13.292ZM8.00004 14.6667C4.31804 14.6667 1.33337 11.682 1.33337 8.00004C1.33337 4.31804 4.31804 1.33337 8.00004 1.33337C11.682 1.33337 14.6667 4.31804 14.6667 8.00004C14.6667 11.682 11.682 14.6667 8.00004 14.6667Z" fill="#436497"/>
</svg>
