<svg width="16" height="16" viewBox="0 0 16 16" fill="none" xmlns="http://www.w3.org/2000/svg">
<path d="M8.00004 13.3334C9.41453 13.3334 10.7711 12.7715 11.7713 11.7713C12.7715 10.7711 13.3334 9.41453 13.3334 8.00004C13.3334 6.58555 12.7715 5.229 11.7713 4.2288C10.7711 3.22861 9.41453 2.66671 8.00004 2.66671C6.58555 2.66671 5.229 3.22861 4.2288 4.2288C3.22861 5.229 2.66671 6.58555 2.66671 8.00004C2.66671 9.41453 3.22861 10.7711 4.2288 11.7713C5.229 12.7715 6.58555 13.3334 8.00004 13.3334ZM8.00004 14.6667C4.31804 14.6667 1.33337 11.682 1.33337 8.00004C1.33337 4.31804 4.31804 1.33337 8.00004 1.33337C11.682 1.33337 14.6667 4.31804 14.6667 8.00004C14.6667 11.682 11.682 14.6667 8.00004 14.6667ZM5.92671 8.78004L4.26137 8.26071C3.90137 8.15071 3.89937 7.90271 4.34204 7.72471L10.8307 5.21804C11.2074 5.06471 11.4207 5.25871 11.2987 5.74471L10.194 10.958C10.1167 11.3294 9.89337 11.418 9.58337 11.2467L7.88271 9.98804L7.09004 10.7534C7.00871 10.832 6.94271 10.8994 6.81737 10.916C6.69271 10.9334 6.59004 10.896 6.51471 10.6894L5.93471 8.77537L5.92671 8.78071V8.78004Z" fill="#436497"/>
</svg>
