<svg width="16" height="16" viewBox="0 0 16 16" fill="none" xmlns="http://www.w3.org/2000/svg">
<path d="M1.33337 13.3334H14.6667V14.6667H1.33337V13.3334ZM2.66671 8.00004H4.00004V12.6667H2.66671V8.00004ZM6.00004 8.00004H7.33337V12.6667H6.00004V8.00004ZM8.66671 8.00004H10V12.6667H8.66671V8.00004ZM12 8.00004H13.3334V12.6667H12V8.00004ZM1.33337 4.66671L8.00004 1.33337L14.6667 4.66671V7.33337H1.33337V4.66671ZM2.66671 5.49071V6.00004H13.3334V5.49071L8.00004 2.82404L2.66671 5.49071ZM8.00004 5.33337C7.82323 5.33337 7.65366 5.26314 7.52864 5.13811C7.40361 5.01309 7.33337 4.84352 7.33337 4.66671C7.33337 4.4899 7.40361 4.32033 7.52864 4.1953C7.65366 4.07028 7.82323 4.00004 8.00004 4.00004C8.17685 4.00004 8.34642 4.07028 8.47145 4.1953C8.59647 4.32033 8.66671 4.4899 8.66671 4.66671C8.66671 4.84352 8.59647 5.01309 8.47145 5.13811C8.34642 5.26314 8.17685 5.33337 8.00004 5.33337Z" fill="#7388A8"/>
</svg>
