<svg width="16" height="16" viewBox="0 0 16 16" fill="none" xmlns="http://www.w3.org/2000/svg">
<path d="M4.83538 12.3294L5.31805 12.6114C6.13201 13.0861 7.05778 13.3353 8.00005 13.3334C9.05488 13.3334 10.086 13.0206 10.9631 12.4345C11.8402 11.8485 12.5237 11.0156 12.9274 10.041C13.3311 9.06648 13.4367 7.99412 13.2309 6.95956C13.0251 5.92499 12.5172 4.97468 11.7713 4.2288C11.0254 3.48292 10.0751 2.97497 9.04053 2.76919C8.00597 2.5634 6.93361 2.66902 5.95907 3.07268C4.98453 3.47635 4.15158 4.15994 3.56555 5.037C2.97951 5.91406 2.66672 6.94521 2.66672 8.00004C2.66672 8.95737 2.91805 9.87537 3.38938 10.6827L3.67072 11.1654L3.23538 12.766L4.83538 12.3294ZM1.33605 14.6667L2.23738 11.3547C1.64347 10.3366 1.33145 9.1787 1.33338 8.00004C1.33338 4.31804 4.31805 1.33337 8.00005 1.33337C11.682 1.33337 14.6667 4.31804 14.6667 8.00004C14.6667 11.682 11.682 14.6667 8.00005 14.6667C6.8219 14.6686 5.66449 14.3568 4.64672 13.7634L1.33605 14.6667ZM5.59405 4.87204C5.68338 4.86537 5.77338 4.86537 5.86272 4.86937C5.89872 4.87204 5.93472 4.87604 5.97072 4.88004C6.07672 4.89204 6.19338 4.95671 6.23272 5.04604C6.43138 5.49671 6.62472 5.95071 6.81138 6.40604C6.85272 6.50737 6.82805 6.63737 6.74938 6.76404C6.69528 6.84969 6.63676 6.93247 6.57405 7.01204C6.49872 7.10871 6.33672 7.28604 6.33672 7.28604C6.33672 7.28604 6.27072 7.36471 6.29605 7.46271C6.30538 7.50004 6.33605 7.55404 6.36405 7.59937L6.40338 7.66271C6.57405 7.94737 6.80338 8.23604 7.08338 8.50804C7.16338 8.58537 7.24138 8.66471 7.32538 8.73871C7.63738 9.01404 7.99072 9.23871 8.37205 9.40537L8.37538 9.40671C8.43205 9.43137 8.46072 9.44471 8.54338 9.48004C8.58472 9.49737 8.62738 9.51271 8.67072 9.52404C8.7155 9.53545 8.76266 9.5333 8.80621 9.51787C8.84977 9.50244 8.88777 9.47442 8.91538 9.43737C9.39805 8.85271 9.44205 8.81471 9.44605 8.81471V8.81604C9.47958 8.78477 9.51942 8.76103 9.56288 8.74643C9.60635 8.73182 9.65244 8.72669 9.69805 8.73137C9.73805 8.73404 9.77872 8.74137 9.81605 8.75804C10.17 8.92004 10.7494 9.17271 10.7494 9.17271L11.1374 9.34671C11.2027 9.37804 11.262 9.45204 11.264 9.52337C11.2667 9.56804 11.2707 9.64004 11.2554 9.77204C11.234 9.94471 11.182 10.152 11.13 10.2607C11.0944 10.3349 11.0472 10.4028 10.9901 10.462C10.9228 10.5327 10.8491 10.5969 10.7701 10.654C10.7427 10.6746 10.7149 10.6946 10.6867 10.714C10.6038 10.7666 10.5186 10.8156 10.4314 10.8607C10.2597 10.9519 10.0702 11.0042 9.87605 11.014C9.75272 11.0207 9.62938 11.03 9.50538 11.0234C9.50005 11.0234 9.12672 10.9654 9.12672 10.9654C8.17889 10.7161 7.30231 10.249 6.56672 9.60137C6.41605 9.46871 6.27672 9.32604 6.13405 9.18404C5.54072 8.59404 5.09272 7.95737 4.82072 7.35604C4.6815 7.0609 4.60629 6.73964 4.60005 6.41337C4.5973 6.00861 4.72961 5.61449 4.97605 5.29337C5.02472 5.23071 5.07072 5.16537 5.15005 5.09004C5.23472 5.01004 5.28805 4.96737 5.34605 4.93804C5.42317 4.89939 5.50729 4.87672 5.59338 4.87137L5.59405 4.87204Z" fill="#436497"/>
</svg>
