<svg width="16" height="16" viewBox="0 0 16 16" fill="none" xmlns="http://www.w3.org/2000/svg">
<path d="M13.3334 8.00004C13.3332 6.8113 12.936 5.65667 12.2046 4.7195C11.4733 3.78234 10.4499 3.11636 9.29679 2.82733C8.14372 2.5383 6.92714 2.64278 5.84023 3.12418C4.75332 3.60558 3.8584 4.4363 3.29757 5.48444C2.73673 6.53257 2.54215 7.73803 2.7447 8.90939C2.94726 10.0807 3.53534 11.1509 4.41558 11.9498C5.29581 12.7487 6.41773 13.2307 7.60318 13.3192C8.78863 13.4076 9.96965 13.0975 10.9587 12.438L11.6987 13.5474C10.6042 14.2792 9.31668 14.6688 8.00004 14.6667C4.31804 14.6667 1.33337 11.682 1.33337 8.00004C1.33337 4.31804 4.31804 1.33337 8.00004 1.33337C11.682 1.33337 14.6667 4.31804 14.6667 8.00004V9.00004C14.6668 9.49921 14.5068 9.98524 14.2102 10.3867C13.9136 10.7883 13.4961 11.0841 13.0189 11.2307C12.5418 11.3774 12.0302 11.3672 11.5593 11.2016C11.0884 11.036 10.683 10.7237 10.4027 10.3107C9.95776 10.7734 9.38868 11.0977 8.76385 11.2448C8.13902 11.3919 7.48502 11.3554 6.88042 11.1398C6.27581 10.9241 5.74633 10.5385 5.35558 10.0292C4.96483 9.51998 4.72943 8.90872 4.67767 8.26891C4.62591 7.6291 4.75998 6.98795 5.06379 6.42249C5.3676 5.85703 5.82821 5.39132 6.39029 5.08131C6.95237 4.7713 7.592 4.63017 8.23235 4.67488C8.87269 4.7196 9.4865 4.94825 10 5.33337H11.3334V9.00004C11.3334 9.26526 11.4387 9.51961 11.6263 9.70715C11.8138 9.89468 12.0682 10 12.3334 10C12.5986 10 12.8529 9.89468 13.0405 9.70715C13.228 9.51961 13.3334 9.26526 13.3334 9.00004V8.00004ZM8.00004 6.00004C7.46961 6.00004 6.9609 6.21075 6.58583 6.58583C6.21075 6.9609 6.00004 7.46961 6.00004 8.00004C6.00004 8.53047 6.21075 9.03918 6.58583 9.41426C6.9609 9.78933 7.46961 10 8.00004 10C8.53047 10 9.03918 9.78933 9.41426 9.41426C9.78933 9.03918 10 8.53047 10 8.00004C10 7.46961 9.78933 6.9609 9.41426 6.58583C9.03918 6.21075 8.53047 6.00004 8.00004 6.00004Z" fill="#7388A8"/>
</svg>
