<svg width="209" height="178" viewBox="0 0 209 178" fill="none" xmlns="http://www.w3.org/2000/svg">
<g clip-path="url(#clip0_1817_315)">
<path d="M206.186 60.9037C206.432 61.87 206.662 62.8413 206.876 63.8175H133.908V60.9037H206.186Z" fill="#E1EDF5"/>
<path d="M203.861 53.2229C202.686 49.8779 201.316 46.6058 199.758 43.4238C199.279 42.4427 198.781 41.4715 198.265 40.51C198.18 40.3451 198.09 40.1801 197.999 40.0151V61.699H204.305V54.5133L203.861 53.2229Z" fill="#E1EDF5"/>
<path d="M199.758 43.4239H197.999V40.5101H198.265C198.782 41.4706 199.28 42.4418 199.758 43.4239Z" fill="#CAD7DF"/>
<path d="M203.861 53.223H197.999V56.1368H204.305V54.5134L203.861 53.223Z" fill="#CAD7DF"/>
<path d="M194.585 36.5377H188.281V61.6994H194.585V36.5377Z" fill="#E1EDF5"/>
<path d="M194.585 40.5106H188.281V43.424H194.585V40.5106Z" fill="#CAD7DF"/>
<path d="M194.585 53.2241H188.281V56.1375H194.585V53.2241Z" fill="#CAD7DF"/>
<path d="M165.835 36.3913H143.22C142.872 36.3918 142.537 36.5317 142.291 36.7802C142.044 37.0287 141.906 37.3656 141.905 37.7171V60.5206C141.906 60.6503 141.924 60.7792 141.961 60.9036C142.043 61.1761 142.209 61.4148 142.436 61.5845C142.663 61.7542 142.938 61.8461 143.22 61.8464H165.835C166.118 61.8461 166.393 61.7543 166.619 61.5845C166.846 61.4148 167.013 61.1761 167.095 60.9036C167.131 60.7793 167.15 60.6503 167.15 60.5206V37.7171C167.15 37.3656 167.011 37.0287 166.764 36.7802C166.518 36.5317 166.184 36.3918 165.835 36.3913Z" fill="#E1EDF5"/>
<path d="M164.228 38.0117H144.827C144.478 38.0122 144.144 38.1521 143.898 38.4006C143.651 38.6491 143.513 38.986 143.512 39.3375V58.9002C143.513 59.2517 143.651 59.5886 143.898 59.8371C144.144 60.0856 144.478 60.2255 144.827 60.226H164.228C164.577 60.2255 164.911 60.0856 165.157 59.8371C165.404 59.5886 165.543 59.2517 165.543 58.9002V39.3375C165.543 38.986 165.404 38.6491 165.157 38.4006C164.911 38.1521 164.577 38.0122 164.228 38.0117Z" fill="white"/>
<path d="M160.759 40.9196H148.125C147.776 40.9201 147.442 41.0599 147.196 41.3085C146.949 41.557 146.81 41.8939 146.81 42.2453V54.9847C146.81 55.3361 146.949 55.673 147.196 55.9215C147.442 56.1701 147.776 56.3099 148.125 56.3104H160.759C161.107 56.3086 161.44 56.1684 161.687 55.9201C161.933 55.6719 162.072 55.3357 162.074 54.9847V42.2453C162.073 41.8939 161.935 41.557 161.688 41.3085C161.442 41.0599 161.107 40.9201 160.759 40.9196Z" fill="#A8D9FF"/>
<path d="M160.066 53.2416L157.397 48.581C157.346 48.4915 157.272 48.4171 157.184 48.3654C157.095 48.3136 156.994 48.2864 156.891 48.2864C156.789 48.2864 156.688 48.3136 156.599 48.3654C156.51 48.4171 156.437 48.4915 156.385 48.581L154.437 51.9842L151.881 47.5215C151.83 47.432 151.756 47.3576 151.667 47.3059C151.578 47.2542 151.478 47.2269 151.375 47.2269C151.273 47.2269 151.172 47.2542 151.083 47.3059C150.994 47.3576 150.92 47.432 150.869 47.5215L148.2 52.1822L145.026 57.7266H151.149L150.542 58.786H163.241L160.066 53.2416Z" fill="white"/>
<path d="M159.124 46.0726C160.14 46.0726 160.963 45.2425 160.963 44.2186C160.963 43.1946 160.14 42.3646 159.124 42.3646C158.109 42.3646 157.285 43.1946 157.285 44.2186C157.285 45.2425 158.109 46.0726 159.124 46.0726Z" fill="white"/>
<path d="M208.977 81.4916C208.956 80.3485 208.911 79.2113 208.842 78.0799C208.813 77.5378 208.778 76.9987 208.734 76.4595H196.398C196.049 76.4601 195.715 76.5999 195.469 76.8484C195.222 77.097 195.084 77.4339 195.083 77.7853V100.589C195.082 100.693 195.095 100.797 195.121 100.898C195.19 101.187 195.353 101.445 195.585 101.629C195.817 101.813 196.103 101.914 196.398 101.915H207.77C207.828 101.579 207.884 101.237 207.933 100.898C207.966 100.698 207.998 100.495 208.027 100.294C208.097 99.814 208.164 99.3338 208.226 98.8535C208.313 98.1995 208.392 97.5425 208.462 96.8825C208.719 94.5167 208.885 92.1254 208.959 89.7086V89.7056C208.985 88.7952 208.999 87.8809 209 86.9627V83.4273C209 82.7791 208.994 82.1339 208.977 81.4916Z" fill="#E1EDF5"/>
<path d="M208.977 81.4917C208.956 80.3485 208.911 79.2113 208.842 78.08H198.005C197.656 78.0805 197.322 78.2203 197.076 78.4689C196.829 78.7174 196.691 79.0543 196.69 79.4057V98.9685C196.691 99.3199 196.829 99.6568 197.076 99.9054C197.322 100.154 197.656 100.294 198.005 100.294H208.027C208.097 99.814 208.164 99.3338 208.226 98.8536C208.313 98.1995 208.392 97.5425 208.462 96.8826C208.719 94.5168 208.885 92.1255 208.959 89.7086V89.7056C208.985 88.7953 208.999 87.881 209 86.9627V83.4273C209 82.7791 208.994 82.1339 208.977 81.4917Z" fill="white"/>
<path d="M208.891 80.9877H201.303C200.954 80.9883 200.62 81.1281 200.373 81.3766C200.127 81.6251 199.988 81.9621 199.988 82.3135V95.0528C199.988 95.4043 200.127 95.7412 200.373 95.9897C200.62 96.2382 200.954 96.3781 201.303 96.3786H208.376C208.634 94.0128 208.799 91.6215 208.873 89.2046V89.2017C208.899 88.2913 208.913 87.377 208.914 86.4588V82.9234C208.914 82.2752 208.908 81.63 208.891 80.9877Z" fill="#A8D9FF"/>
<path d="M208.959 89.7085C208.886 92.1244 208.72 94.5157 208.462 96.8825C208.392 97.5424 208.313 98.1994 208.226 98.8535H203.72L204.328 97.7958H198.204L200.074 94.5285L201.377 92.2511L204.047 87.5902C204.098 87.5003 204.172 87.4255 204.261 87.3735C204.349 87.3215 204.45 87.2941 204.553 87.2941C204.656 87.2941 204.756 87.3215 204.845 87.3735C204.934 87.4255 205.007 87.5003 205.058 87.5902L207.615 92.0537L208.959 89.7085Z" fill="white"/>
<path d="M186.82 23.8258H133.908V20.912H184.196C185.09 21.8637 185.965 22.8349 186.82 23.8258Z" fill="#E1EDF5"/>
<path d="M162.014 3.61792C164.17 4.81407 166.272 6.09566 168.319 7.4627V21.7046H162.014V3.61792Z" fill="#E1EDF5"/>
<path d="M168.318 13.2302H162.013V16.1436H168.318V13.2302Z" fill="#CAD7DF"/>
<path d="M178.037 14.946V21.7046H171.732V9.85797C173.201 10.9392 174.638 12.0637 176.041 13.2314C176.713 13.7911 177.379 14.3627 178.037 14.946Z" fill="#E1EDF5"/>
<path d="M178.037 14.946V16.1422H171.732V13.2313H176.041C176.713 13.7911 177.379 14.3627 178.037 14.946Z" fill="#CAD7DF"/>
<path d="M155.577 0.371162C157.245 1.12832 158.885 1.93557 160.497 2.79293L159.2 5.43272L154.89 14.2153L153.607 16.8256L151.6 20.912L151.159 21.8106L149.362 20.912L145.511 18.9881L147.956 14.0032H147.959L149.239 11.3929L153.552 2.61026L154.82 0.0294027L154.834 -6.10352e-05L155.577 0.371162Z" fill="#E1EDF5"/>
<path d="M160.482 2.8195L159.2 5.43278L153.552 2.61032L154.82 0.0294619L154.834 0L155.577 0.37122L160.482 2.8195Z" fill="#CAD7DF"/>
<path d="M149.239 11.3938L147.957 14.0048L153.607 16.8251L154.889 14.2141L149.239 11.3938Z" fill="#CAD7DF"/>
<path d="M207.934 100.898C207.884 101.237 207.828 101.579 207.77 101.915C207.668 102.551 207.557 103.182 207.437 103.812H133.908V100.898H207.934Z" fill="#E1EDF5"/>
<path d="M168.318 76.5315H162.013V101.693H168.318V76.5315Z" fill="#E1EDF5"/>
<path d="M168.318 80.5044H162.013V83.4178H168.318V80.5044Z" fill="#CAD7DF"/>
<path d="M168.318 93.2178H162.013V96.1313H168.318V93.2178Z" fill="#CAD7DF"/>
<path d="M178.036 76.5315H171.732V101.693H178.036V76.5315Z" fill="#E1EDF5"/>
<path d="M178.036 80.5044H171.732V83.4178H178.036V80.5044Z" fill="#CAD7DF"/>
<path d="M178.036 93.2178H171.732V96.1313H178.036V93.2178Z" fill="#CAD7DF"/>
<path d="M156.582 76.4277L145.51 98.9771L151.159 101.797L162.231 79.2481L156.582 76.4277Z" fill="#E1EDF5"/>
<path d="M154.833 79.9879L153.551 82.5989L159.201 85.4193L160.483 82.8083L154.833 79.9879Z" fill="#CAD7DF"/>
<path d="M149.239 91.3814L147.957 93.9924L153.607 96.8127L154.889 94.2018L149.239 91.3814Z" fill="#CAD7DF"/>
<path d="M85.5518 112.127C85.8153 112.28 86.0664 112.453 86.3028 112.646L112.316 104.483L113.783 97.9756L123.812 98.9242L122.326 110.699C122.205 111.65 121.783 112.537 121.12 113.225C120.458 113.913 119.593 114.366 118.653 114.516L88.0399 119.403C87.5933 120.495 86.8277 121.423 85.845 122.065C84.8622 122.708 83.7089 123.033 82.5384 122.998C81.3679 122.963 80.2357 122.569 79.2925 121.869C78.3492 121.17 77.6395 120.197 77.2578 119.081C76.8761 117.965 76.8405 116.758 77.1557 115.621C77.4709 114.483 78.122 113.47 79.0224 112.715C79.9228 111.96 81.0298 111.499 82.1962 111.394C83.3625 111.289 84.533 111.545 85.5518 112.127Z" fill="#FFB8B8"/>
<path d="M128.447 102.828L128.275 99.8582V99.8552L128.228 99.042L127.72 90.2977C127.872 88.4748 127.301 86.6653 126.133 85.2655C124.965 83.8658 123.295 82.9897 121.487 82.8291C120.967 82.7821 120.444 82.796 119.927 82.8704C118.392 83.0893 116.975 83.8247 115.906 84.9573C114.838 86.09 114.18 87.5535 114.039 89.1104L112.985 93.5356L111.141 101.275C111.01 101.817 111.064 102.387 111.295 102.894C111.525 103.4 111.917 103.814 112.409 104.068C112.693 104.219 113.004 104.311 113.324 104.339L116.397 104.616L119.357 104.881L122.773 105.188L123.018 105.208L123.649 105.267L125.762 105.456H125.768C126.121 105.485 126.476 105.437 126.809 105.318C127.142 105.198 127.447 105.008 127.702 104.761C127.888 104.578 128.045 104.367 128.167 104.136C128.38 103.735 128.477 103.282 128.447 102.828V102.828Z" fill="#3D88C1"/>
<path d="M156.992 66.8173C156.992 76.9007 147.746 75.3756 136.339 75.3756C124.933 75.3756 115.686 76.9007 115.686 66.8173C115.686 56.7339 120.203 38.8602 136.339 38.8602C153.032 38.8602 156.992 56.7339 156.992 66.8173Z" fill="#2F2E41"/>
<path d="M146.097 71.2544C151.525 65.7818 151.525 56.9091 146.097 51.4365C140.67 45.964 131.87 45.964 126.443 51.4365C121.016 56.9091 121.016 65.7818 126.443 71.2544C131.87 76.7269 140.67 76.7269 146.097 71.2544Z" fill="#F6BCAA"/>
<path d="M155.834 81.25C155.566 80.9901 155.282 80.748 154.984 80.5252C153.094 79.0859 150.72 78.4521 148.371 78.7604L122.761 82.0278C120.415 82.3214 118.275 83.5247 116.794 85.3826C115.313 87.2405 114.608 89.6068 114.828 91.98C114.901 92.8049 114.983 93.674 115.074 94.5785C115.191 95.7128 115.322 96.9031 115.474 98.1346C115.725 100.206 116.032 102.392 116.397 104.616C116.716 106.531 117.078 108.473 117.493 110.391C117.613 110.945 117.738 111.497 117.867 112.046C117.867 112.048 117.867 112.05 117.868 112.051C117.868 112.053 117.869 112.054 117.87 112.055C117.885 112.123 117.899 112.191 117.917 112.256C117.916 112.261 117.917 112.266 117.92 112.27C118.101 113.036 118.291 113.794 118.49 114.542C118.565 114.819 118.638 115.093 118.714 115.364C118.919 116.1 119.135 116.822 119.357 117.532C121.026 122.815 123.232 127.314 126.145 129.706C126.183 129.741 126.221 129.771 126.262 129.803L126.379 129.894L126.548 129.841L127.267 129.626L127.88 129.438L135.875 127.013L137.864 126.409L144.257 124.468H144.26L150.107 122.694L150.82 122.476L155.843 120.953L156.003 119.061L156.22 116.551L156.348 115.043L157.365 103.146L157.958 96.2048L158.601 88.6685C158.72 87.3019 158.534 85.9257 158.055 84.6417C157.576 83.3576 156.817 82.1985 155.834 81.25Z" fill="#33323A"/>
<path d="M170.154 138.816C170.087 138.618 170.022 138.421 169.955 138.227C166.952 129.388 162.522 122.703 156.003 119.062C156 119.062 156 119.059 155.997 119.059L155.886 118.997L150.206 120.98L149.505 121.224L148.775 121.48L148.766 121.483L143.448 123.339L143.439 123.342L139.267 124.798H139.264L135.404 126.144H135.401L134.504 126.459L127.758 128.813L126.974 129.087L126.273 129.332L126.165 129.37L126.145 129.706L125.663 138.227L125.631 138.816L125.029 149.449L105.04 178H118.714C123.296 178.001 127.872 177.65 132.4 176.948L145.23 163.007C145.338 162.895 145.474 162.814 145.623 162.774C145.773 162.734 145.93 162.736 146.079 162.78C146.228 162.823 146.362 162.907 146.466 163.022C146.571 163.137 146.643 163.278 146.674 163.431L148.558 172.859C157.843 169.549 166.528 164.73 174.271 158.594C173.371 151.272 172.056 144.599 170.154 138.816Z" fill="#33323A"/>
<path d="M120.213 59.9707H125.709L128.134 53.1241L128.619 59.9707H131.247L132.661 55.9769L132.944 59.9707H152.466C152.466 58.0226 152.085 56.0936 151.346 54.2938C150.606 52.4941 149.523 50.8587 148.157 49.4812C146.791 48.1037 145.169 47.011 143.384 46.2656C141.599 45.5201 139.686 45.1364 137.754 45.1364H134.925C131.023 45.1364 127.281 46.6993 124.522 49.4812C121.763 52.2632 120.213 56.0364 120.213 59.9707Z" fill="#2F2E41"/>
<path d="M86.4023 134.216C85.5049 134.596 84.5357 134.773 83.5631 134.735C82.5904 134.697 81.6379 134.444 80.7727 133.994C79.9075 133.544 79.1506 132.909 78.5552 132.132C77.9599 131.356 77.5407 130.457 77.3272 129.499L53.8162 126.815L61.6973 117.298L82.8155 121.307C84.4347 121.052 86.0904 121.404 87.469 122.298C88.8476 123.191 89.8532 124.564 90.2953 126.155C90.7375 127.746 90.5853 129.446 89.8678 130.931C89.1503 132.417 87.9173 133.586 86.4023 134.216L86.4023 134.216Z" fill="#A0616A"/>
<path d="M73.7266 116.601L63.7892 114.81L63.0676 114.681C62.4909 114.577 61.9425 114.351 61.4585 114.018C60.9744 113.685 60.5657 113.253 60.2591 112.75C59.9525 112.246 59.755 111.683 59.6796 111.098C59.6041 110.512 59.6525 109.916 59.8214 109.351L64.7009 93.0024L64.8469 92.5163C65.4562 90.4384 65.3477 88.2134 64.5393 86.2058C63.7308 84.1981 62.2704 82.5267 60.3969 81.4651C59.1288 80.7551 57.7154 80.3496 56.2665 80.2801C54.8177 80.2106 53.3724 80.479 52.0432 81.0645C50.714 81.65 49.5367 82.5367 48.6027 83.6558C47.6687 84.7748 47.0034 86.096 46.6583 87.5166L40.4348 113.128L40.204 114.077C39.7693 115.864 39.7219 117.724 40.065 119.531C40.4081 121.339 41.1337 123.05 42.1922 124.549C43.2508 126.048 44.6174 127.299 46.1989 128.217C47.7805 129.135 49.5397 129.698 51.3567 129.868C51.3771 129.871 51.3947 129.871 51.4152 129.874L55.1406 130.207L59.9732 130.64L66.0508 131.185L71.7222 131.695C72.465 131.763 73.206 131.546 73.7982 131.089C74.3903 130.632 74.7903 129.967 74.9187 129.226C74.9274 129.185 74.9333 129.143 74.9391 129.102L76.143 120.04L76.1546 119.957C76.2585 119.19 76.0636 118.412 75.6109 117.786C75.1582 117.161 74.4829 116.736 73.7266 116.601Z" fill="#CAD7DF"/>
<path d="M58.4161 47.9349C54.4492 55.7992 51.3227 63.9104 42.5726 63.9104C38.3706 63.9104 34.3407 62.2273 31.3695 59.2313C28.3982 56.2353 26.729 52.1719 26.729 47.9349C26.729 39.1119 33.823 32.0699 42.5726 31.9595C51.4652 31.8472 65.7997 33.2972 58.4161 47.9349Z" fill="#2F2E41"/>
<path d="M68.3676 150.816L68.008 147.198L67.7393 147.212L20.4956 149.508L20.6183 153.17L20.8259 159.442C28.1361 165.057 36.2542 169.513 44.899 172.656L45.2059 170.258C45.2327 170.062 45.3257 169.882 45.4691 169.748C45.6125 169.614 45.7975 169.533 45.9927 169.521C46.188 169.508 46.3815 169.564 46.5406 169.679C46.6996 169.794 46.8144 169.961 46.8655 170.151L47.7975 173.655C55.3282 176.103 63.1486 177.531 71.0527 177.9L68.3676 150.816Z" fill="#33323A"/>
<path d="M53.1794 60.117C58.6067 54.6444 58.6067 45.7717 53.1794 40.2991C47.752 34.8266 38.9525 34.8266 33.5251 40.2991C28.0978 45.7717 28.0978 54.6444 33.5251 60.117C38.9525 65.5896 47.752 65.5896 53.1794 60.117Z" fill="#F6C1AA"/>
<path d="M71.082 147.442L68.3266 138.816L68.2798 138.668L68.1396 138.226L67.3536 135.769C67.0994 134.971 66.8568 134.169 66.6318 133.365C66.4244 132.64 66.2306 131.914 66.0505 131.185C65.7934 130.171 65.5596 129.154 65.3492 128.133C64.6362 124.701 64.1607 121.222 63.9263 117.724C63.8619 116.755 63.8161 115.783 63.7889 114.81C63.6177 108.845 64.1503 102.88 65.3755 97.0416C66.442 91.9927 65.8724 86.7319 63.7504 82.0341C61.6284 77.3363 58.0663 73.4498 53.5887 70.9471C50.6506 69.3098 47.3986 68.3263 44.0517 68.0628C43.8209 68.0451 43.59 68.0304 43.3563 68.0157C39.8209 67.7904 36.2804 68.3687 32.9963 69.7078C29.7121 71.0468 26.7682 73.1125 24.3817 75.7524C23.1035 77.1563 21.9934 78.7068 21.0741 80.372C18.5235 85.0058 17.5659 90.3606 18.351 95.6009L21.6351 117.836L20.8872 127.196L20.0048 138.226L19.958 138.816L19.0171 150.577C18.9725 151.125 19.1042 151.673 19.3925 152.14C19.6809 152.607 20.1107 152.968 20.6183 153.169C20.9156 153.29 21.2331 153.351 21.5533 153.349C21.6001 153.349 21.6439 153.349 21.6907 153.346L68.3675 150.815L68.7941 150.792C69.1835 150.771 69.563 150.661 69.9033 150.469C70.2435 150.277 70.5355 150.009 70.7567 149.685C70.9778 149.362 71.1221 148.991 71.1785 148.602C71.235 148.213 71.2019 147.816 71.082 147.442L71.082 147.442Z" fill="#FE9B47"/>
<path d="M58.0999 42.2885C54.9241 44.4956 51.1546 45.6702 47.2976 45.6547C48.6734 46.6166 50.2397 47.2664 51.8886 47.5592C46.7604 48.6684 41.4603 48.6984 36.32 47.6474C35.1774 47.4627 34.0749 47.0809 33.0609 46.5187C32.0739 45.9146 31.2483 44.9527 31.0492 43.8059C30.7076 41.8383 32.2281 40.0508 33.8083 38.846C36.2275 37.0297 39.017 35.7782 41.9748 35.1823C44.9326 34.5863 47.9848 34.6607 50.9105 35.4001C52.821 35.898 54.7348 36.7393 55.9757 38.2863C57.2166 39.8333 57.5841 42.2183 56.4019 43.8113L58.0999 42.2885Z" fill="#2F2E41"/>
<path d="M58.8107 131.301C57.9216 131.7 56.9565 131.899 55.9833 131.882C55.01 131.865 54.0523 131.632 53.1776 131.202C52.3029 130.771 51.5325 130.152 50.9207 129.389C50.3089 128.626 49.8705 127.736 49.6364 126.784L26.0732 124.613L33.7482 114.926L54.9475 118.473C56.5608 118.183 58.2238 118.499 59.6212 119.362C61.0187 120.225 62.0536 121.576 62.5298 123.157C63.0059 124.738 62.8904 126.44 62.2049 127.941C61.5195 129.442 60.3118 130.638 58.8107 131.301L58.8107 131.301Z" fill="#F6C1AA"/>
<path d="M45.7612 113.968L40.4347 113.128L35.0613 112.279C34.4826 112.188 33.9296 111.975 33.4386 111.653C32.9475 111.331 32.5296 110.908 32.2123 110.411C31.8949 109.915 31.6853 109.356 31.5972 108.773C31.5091 108.189 31.5446 107.593 31.7012 107.023L36.3645 90.0829C36.9288 87.9921 36.7724 85.7701 35.921 83.7807C35.0696 81.7912 33.5735 80.1522 31.6778 79.1318C30.3971 78.4429 28.9749 78.0643 27.5239 78.0259C26.0729 77.9876 24.633 78.2906 23.3184 78.9109C21.9996 79.5214 20.8395 80.4324 19.9294 81.5719C19.0192 82.7115 18.3839 84.0486 18.0735 85.4779L12.1919 112.173C11.7956 113.974 11.7899 115.84 12.1751 117.643C12.5602 119.446 13.3272 121.144 14.4234 122.621C15.5197 124.098 16.9193 125.318 18.5267 126.199C20.134 127.079 21.9111 127.599 23.7362 127.723L44.0812 129.099C44.8251 129.15 45.5609 128.918 46.1431 128.448C46.7253 127.979 47.1114 127.306 47.225 126.563C47.2339 126.521 47.2367 126.48 47.2426 126.439L48.2507 117.353L48.2594 117.27C48.3462 116.501 48.1348 115.728 47.6691 115.112C47.2035 114.497 46.5199 114.087 45.7612 113.968Z" fill="#F58220"/>
<path d="M135.894 99.8846L134.675 100.555L119.653 108.82L118.434 109.491C117.842 109.817 117.403 110.367 117.213 111.019C117.023 111.672 117.097 112.373 117.419 112.971L128.605 133.643C128.929 134.24 129.474 134.683 130.121 134.874C130.768 135.066 131.464 134.991 132.057 134.666L132.06 134.665L149.514 125.062L149.517 125.06C150.109 124.734 150.548 124.184 150.738 123.532C150.928 122.88 150.854 122.178 150.532 121.58L139.345 100.908C139.022 100.311 138.476 99.8684 137.829 99.6766C137.182 99.4848 136.486 99.5596 135.894 99.8846Z" fill="#E1EDF5"/>
<path d="M136.245 100.533L134.801 101.327L120.229 109.344L118.784 110.139C118.363 110.371 118.05 110.763 117.915 111.227C117.779 111.692 117.832 112.192 118.062 112.617L129.248 133.29C129.479 133.715 129.867 134.03 130.328 134.166C130.788 134.303 131.284 134.25 131.706 134.018L131.709 134.017L149.163 124.414L149.166 124.412C149.588 124.18 149.9 123.788 150.036 123.324C150.171 122.859 150.118 122.359 149.889 121.934L138.702 101.261C138.472 100.836 138.084 100.521 137.623 100.385C137.162 100.248 136.667 100.301 136.245 100.533Z" fill="white"/>
<path d="M136.655 106.369C136.6 106.27 136.509 106.196 136.402 106.164C136.294 106.132 136.178 106.145 136.079 106.198L135.498 106.519L129.569 109.781C129.471 109.836 129.398 109.927 129.367 110.036C129.336 110.144 129.348 110.261 129.402 110.36C129.455 110.459 129.546 110.533 129.653 110.565C129.761 110.598 129.876 110.586 129.975 110.532L136.485 106.95C136.584 106.895 136.657 106.803 136.688 106.695C136.72 106.586 136.708 106.469 136.655 106.369Z" fill="#E1EDF5"/>
<path d="M138.872 106.791C138.846 106.741 138.81 106.698 138.767 106.663C138.724 106.628 138.674 106.602 138.621 106.586C138.567 106.571 138.512 106.566 138.456 106.572C138.401 106.578 138.348 106.596 138.3 106.623L130.256 111.048C130.207 111.075 130.164 111.111 130.129 111.155C130.094 111.198 130.068 111.249 130.053 111.302C130.037 111.356 130.032 111.412 130.038 111.468C130.044 111.524 130.061 111.578 130.088 111.627C130.114 111.676 130.15 111.719 130.194 111.754C130.237 111.79 130.287 111.816 130.34 111.831C130.393 111.847 130.449 111.852 130.504 111.846C130.56 111.84 130.613 111.823 130.662 111.796L131.036 111.59L133.376 110.303H133.379L138.703 107.371C138.752 107.345 138.796 107.308 138.831 107.265C138.866 107.221 138.892 107.171 138.908 107.117C138.924 107.063 138.929 107.006 138.923 106.95C138.917 106.894 138.899 106.84 138.872 106.791Z" fill="#E1EDF5"/>
<path d="M130.13 113.844L127.576 109.121C127.55 109.074 127.506 109.039 127.454 109.024C127.402 109.009 127.346 109.015 127.299 109.042L126.06 109.722L125.417 110.076L121.967 111.973L121.297 112.341C121.25 112.368 121.216 112.412 121.201 112.465C121.186 112.517 121.192 112.573 121.219 112.621L121.382 112.925L123.772 117.344C123.798 117.391 123.842 117.426 123.893 117.441C123.945 117.456 124 117.449 124.047 117.423L128.167 115.158L128.809 114.804L130.048 114.124C130.072 114.111 130.093 114.093 130.11 114.072C130.127 114.051 130.14 114.027 130.147 114.001C130.155 113.975 130.157 113.948 130.154 113.921C130.151 113.894 130.143 113.868 130.13 113.844Z" fill="#E1EDF5"/>
<path d="M139.883 112.362C139.83 112.263 139.739 112.189 139.632 112.157C139.525 112.125 139.409 112.137 139.311 112.191L130.481 117.049C130.403 117.092 130.34 117.159 130.302 117.24C130.264 117.321 130.251 117.412 130.267 117.5C130.273 117.546 130.288 117.59 130.311 117.63C130.334 117.67 130.362 117.707 130.396 117.739L130.399 117.741C130.464 117.801 130.546 117.838 130.634 117.849C130.721 117.859 130.809 117.842 130.887 117.8L139.717 112.942C139.766 112.915 139.809 112.879 139.843 112.835C139.878 112.791 139.904 112.741 139.92 112.687C139.935 112.633 139.94 112.576 139.934 112.521C139.927 112.465 139.91 112.411 139.883 112.362Z" fill="#E1EDF5"/>
<path d="M142.104 112.783C142.077 112.734 142.041 112.691 141.997 112.656C141.954 112.621 141.904 112.595 141.85 112.579C141.797 112.563 141.741 112.559 141.686 112.565C141.63 112.571 141.577 112.588 141.528 112.615L131.164 118.316C131.086 118.358 131.024 118.423 130.985 118.503C130.947 118.583 130.935 118.674 130.951 118.761V118.764C130.957 118.81 130.972 118.854 130.995 118.894C131.017 118.936 131.047 118.974 131.082 119.006C131.147 119.066 131.229 119.104 131.317 119.115C131.405 119.126 131.493 119.108 131.57 119.064L141.934 113.364C142.033 113.309 142.106 113.217 142.138 113.109C142.17 113 142.157 112.883 142.104 112.783Z" fill="#E1EDF5"/>
<path d="M127.523 121.778C128.516 121.778 129.32 120.967 129.32 119.966C129.32 118.965 128.516 118.154 127.523 118.154C126.531 118.154 125.726 118.965 125.726 119.966C125.726 120.967 126.531 121.778 127.523 121.778Z" fill="#E1EDF5"/>
<path d="M141.153 91.9299L139.934 92.6007L124.912 100.865L123.693 101.536C123.101 101.862 122.662 102.412 122.472 103.064C122.282 103.717 122.356 104.419 122.678 105.016L133.865 125.689C134.188 126.285 134.734 126.728 135.381 126.92C136.028 127.111 136.724 127.037 137.316 126.712L137.319 126.71L154.773 117.107L154.776 117.106C155.368 116.779 155.807 116.23 155.997 115.577C156.187 114.925 156.113 114.223 155.791 113.626L144.605 92.9529C144.281 92.3563 143.736 91.9136 143.089 91.7218C142.442 91.53 141.746 91.6048 141.153 91.9299Z" fill="#CAD7DF"/>
<path d="M141.504 92.578L140.06 93.3725L125.488 101.39L124.044 102.184C123.622 102.416 123.31 102.808 123.174 103.272C123.039 103.737 123.092 104.237 123.321 104.662L134.508 125.335C134.738 125.76 135.126 126.075 135.587 126.212C136.048 126.348 136.543 126.295 136.965 126.063L136.968 126.062L154.422 116.459L154.426 116.457C154.847 116.225 155.16 115.834 155.295 115.369C155.43 114.904 155.378 114.405 155.148 113.979L143.962 93.3065C143.731 92.8817 143.343 92.5664 142.882 92.4298C142.422 92.2933 141.926 92.3465 141.504 92.578Z" fill="white"/>
<path d="M141.914 98.4145C141.86 98.3153 141.769 98.2417 141.661 98.2097C141.553 98.1777 141.437 98.1899 141.338 98.2436L138.341 99.8935L137.505 100.353L134.828 101.826C134.73 101.881 134.658 101.972 134.626 102.081C134.595 102.19 134.607 102.306 134.661 102.405C134.715 102.505 134.805 102.578 134.913 102.611C135.02 102.643 135.136 102.631 135.235 102.578L138.39 100.842L139.05 100.477L141.745 98.9949C141.843 98.9402 141.916 98.8485 141.948 98.7399C141.979 98.6312 141.967 98.5143 141.914 98.4145Z" fill="#CAD7DF"/>
<path d="M144.132 98.8359C144.105 98.7867 144.069 98.7433 144.026 98.7082C143.983 98.6731 143.933 98.647 143.88 98.6314C143.827 98.6158 143.771 98.611 143.716 98.6172C143.661 98.6235 143.608 98.6407 143.559 98.6679L139.378 100.969L138.735 101.322L135.515 103.093C135.466 103.12 135.423 103.156 135.389 103.2C135.354 103.244 135.328 103.294 135.312 103.348C135.297 103.401 135.292 103.458 135.298 103.513C135.304 103.569 135.32 103.623 135.347 103.672C135.374 103.721 135.41 103.765 135.453 103.8C135.496 103.835 135.546 103.861 135.599 103.877C135.653 103.892 135.709 103.897 135.764 103.891C135.819 103.885 135.873 103.868 135.921 103.841L139.141 102.071L139.784 101.717L143.962 99.4163C144.012 99.3898 144.055 99.3536 144.09 99.3099C144.126 99.2663 144.152 99.216 144.168 99.1619C144.184 99.1079 144.188 99.0512 144.182 98.9952C144.176 98.9393 144.159 98.8851 144.132 98.8359Z" fill="#CAD7DF"/>
<path d="M135.39 105.889L133.353 102.124L133.002 101.476L132.836 101.166C132.809 101.119 132.765 101.084 132.713 101.069C132.661 101.054 132.606 101.061 132.558 101.087L128.424 103.361L126.557 104.387C126.51 104.413 126.475 104.458 126.46 104.51C126.445 104.563 126.452 104.619 126.478 104.666L126.644 104.973L126.825 105.312L126.995 105.621V105.624L129.031 109.389C129.057 109.436 129.101 109.471 129.152 109.486C129.204 109.501 129.259 109.495 129.306 109.469L135.308 106.169C135.331 106.156 135.352 106.139 135.369 106.118C135.386 106.097 135.399 106.072 135.406 106.046C135.414 106.02 135.417 105.993 135.414 105.966C135.411 105.939 135.403 105.913 135.39 105.889Z" fill="#F58220"/>
<path d="M145.143 104.407C145.089 104.308 144.999 104.234 144.891 104.202C144.784 104.17 144.668 104.182 144.57 104.236L141.931 105.689L141.289 106.042L138.741 107.442L135.74 109.094C135.691 109.121 135.648 109.158 135.613 109.201C135.578 109.245 135.552 109.295 135.536 109.349C135.52 109.403 135.515 109.46 135.521 109.515C135.527 109.571 135.544 109.625 135.571 109.675C135.597 109.724 135.633 109.768 135.677 109.803C135.72 109.838 135.77 109.865 135.823 109.88C135.877 109.896 135.933 109.901 135.988 109.895C136.044 109.889 136.097 109.873 136.146 109.846L141.695 106.793L142.338 106.44L144.976 104.987C145.025 104.96 145.068 104.924 145.103 104.88C145.138 104.836 145.163 104.786 145.179 104.732C145.194 104.678 145.199 104.622 145.193 104.566C145.187 104.51 145.17 104.456 145.143 104.407Z" fill="#CAD7DF"/>
<path d="M147.363 104.828C147.336 104.779 147.3 104.736 147.257 104.701C147.213 104.666 147.163 104.64 147.11 104.624C147.056 104.609 147 104.604 146.945 104.61C146.89 104.616 146.836 104.633 146.788 104.661L142.618 106.956L141.975 107.309L136.424 110.361C136.375 110.388 136.332 110.424 136.296 110.468C136.261 110.512 136.235 110.562 136.219 110.616C136.204 110.67 136.199 110.726 136.205 110.782C136.21 110.838 136.227 110.892 136.254 110.941C136.281 110.991 136.317 111.034 136.36 111.069C136.404 111.104 136.454 111.13 136.507 111.146C136.561 111.162 136.617 111.167 136.672 111.16C136.728 111.154 136.781 111.137 136.83 111.11L142.379 108.058L143.021 107.704L147.194 105.409C147.292 105.354 147.365 105.263 147.397 105.154C147.429 105.045 147.417 104.928 147.363 104.828Z" fill="#CAD7DF"/>
<path d="M132.782 113.824C133.775 113.824 134.579 113.012 134.579 112.012C134.579 111.011 133.775 110.199 132.782 110.199C131.79 110.199 130.985 111.011 130.985 112.012C130.985 113.012 131.79 113.824 132.782 113.824Z" fill="#CAD7DF"/>
<path d="M133.99 122.199C134.292 122.229 134.592 122.283 134.886 122.36L155.266 104.13L153.948 97.5905L163.477 94.295L166.926 105.644C167.204 106.561 167.18 107.544 166.858 108.446C166.535 109.348 165.931 110.12 165.136 110.647L139.226 127.799C139.264 128.979 138.945 130.143 138.312 131.136C137.678 132.129 136.759 132.903 135.678 133.357C134.597 133.811 133.404 133.922 132.259 133.675C131.114 133.429 130.07 132.837 129.267 131.977C128.464 131.118 127.939 130.033 127.762 128.866C127.586 127.698 127.766 126.505 128.278 125.443C128.791 124.382 129.612 123.503 130.632 122.923C131.653 122.343 132.824 122.091 133.99 122.199Z" fill="#F6BCAA"/>
<path d="M169.295 95.928L163.521 84.8091C162.927 83.118 161.704 81.7259 160.111 80.9266C158.518 80.1273 156.68 79.9834 154.984 80.5253C154.919 80.543 154.858 80.5636 154.794 80.5872C153.075 81.1931 151.664 82.4618 150.872 84.115C150.08 85.7682 149.971 87.6708 150.568 89.4051L152.886 101.694C152.952 102.045 153.093 102.379 153.299 102.671C153.504 102.962 153.77 103.206 154.078 103.385C154.414 103.583 154.793 103.696 155.182 103.715C155.502 103.735 155.823 103.69 156.126 103.582L157.365 103.146L165.318 100.353L167.919 99.4399C168.254 99.3216 168.56 99.1319 168.816 98.8837C169.073 98.6354 169.273 98.3345 169.403 98.0013C169.534 97.6681 169.592 97.3105 169.573 96.9527C169.554 96.595 169.459 96.2455 169.295 95.928Z" fill="#3D88C1"/>
<path d="M191.09 138.816H0.292187C0.214694 138.816 0.140375 138.785 0.0855793 138.73C0.0307837 138.674 0 138.599 0 138.521C0 138.443 0.0307837 138.368 0.0855793 138.313C0.140375 138.258 0.214694 138.227 0.292187 138.227H191.09C191.168 138.227 191.242 138.258 191.297 138.313C191.352 138.368 191.382 138.443 191.382 138.521C191.382 138.599 191.352 138.674 191.297 138.73C191.242 138.785 191.168 138.816 191.09 138.816Z" fill="#3F3D56"/>
<path d="M33.1621 133.365V133.513C33.1631 134.512 33.4516 135.489 33.9926 136.325C34.5335 137.162 35.3037 137.823 36.2097 138.227C36.8595 138.519 37.5636 138.67 38.2754 138.668H85.4636V133.365H33.1621Z" fill="#33323A"/>
<path d="M118.411 98.4147C117.662 96.856 116.509 95.5305 115.074 94.5787C114.423 94.1445 113.722 93.7941 112.985 93.5358C111.981 93.1822 110.925 93.002 109.861 93.0025H64.5723C62.0546 93.0054 59.641 94.0152 57.8607 95.8102C56.0805 97.6053 55.0791 100.039 55.0762 102.578V129.093C55.0754 129.466 55.0969 129.837 55.1405 130.207C55.2047 130.76 55.3161 131.306 55.4735 131.839C55.6297 132.365 55.8311 132.875 56.0754 133.365C56.862 134.959 58.074 136.3 59.5751 137.237C61.0762 138.173 62.8069 138.669 64.5723 138.668H109.861C111.108 138.669 112.343 138.422 113.496 137.941C114.648 137.46 115.695 136.754 116.577 135.865C117.459 134.976 118.158 133.92 118.635 132.758C119.112 131.596 119.358 130.351 119.357 129.093V102.578C119.359 101.135 119.036 99.7118 118.411 98.4147Z" fill="#1F4A6B"/>
<path d="M89.7003 118.192C90.9912 118.192 92.0378 117.137 92.0378 115.835C92.0378 114.534 90.9912 113.478 89.7003 113.478C88.4093 113.478 87.3628 114.534 87.3628 115.835C87.3628 117.137 88.4093 118.192 89.7003 118.192Z" fill="white"/>
</g>
<defs>
<clipPath id="clip0_1817_315">
<rect width="209" height="178" fill="white"/>
</clipPath>
</defs>
</svg>
