<svg xmlns="http://www.w3.org/2000/svg" width="353" height="216" viewBox="0 0 353 216">
    <g id="dom" fill="none" fill-rule="evenodd" stroke="none" stroke-width="1">
        <g id="event-order-bubbling.svg">
            <path id="Rectangle-210" fill="#FFDE99" d="M159.488 140L174 186H60l14.512-46z"/>
            <path id="Rectangle-209" stroke="#CFCE95" stroke-width="18" d="M173.634 81H59.366l-16.09 51h146.447l-16.09-51z"/>
            <path id="Rectangle-208" stroke="#99C0C3" stroke-width="18" d="M193.014 29H39.986l-22.71 72h198.448l-22.71-72z"/>
            <path id="Fill-46" fill="#5A4739" d="M121.5 141v13.816a4.5 4.5 0 11-9 0V141h9zm0-31v13h-9v-13h9zM117 20.53a4.471 4.471 0 013.362 1.3l17.64 17.64a4.5 4.5 0 01-6.364 6.364L121.5 35.698V92h-9V35.7l-10.138 10.136a4.5 4.5 0 11-6.363-6.364l17.639-17.64a4.477 4.477 0 013.363-1.3z"/>
            <text id="1" fill="#5A4739" font-family="PTMono-Bold, PT Mono" font-size="14" font-weight="bold">
                <tspan x="180" y="105">html</tspan>
            </text>
            <text id="2" fill="#5A4739" font-family="PTMono-Bold, PT Mono" font-size="14" font-weight="bold">
                <tspan x="160" y="136">body</tspan>
            </text>
            <text id="3" fill="#EE6B47" font-family="PTMono-Bold, PT Mono" font-size="14" font-weight="bold">
                <tspan x="140" y="181">div</tspan>
            </text>
        </g>
    </g>
</svg>